<?xml version="1.0" standalone="no"?>
<!DOCTYPE svg PUBLIC "-//W3C//DTD SVG 20010904//EN"
 "http://www.w3.org/TR/2001/REC-SVG-20010904/DTD/svg10.dtd">
<svg version="1.0" xmlns="http://www.w3.org/2000/svg"
 width="512.000000pt" height="512.000000pt" viewBox="0 0 512.000000 512.000000"
 preserveAspectRatio="xMidYMid meet">

<g transform="translate(0.000000,512.000000) scale(0.100000,-0.100000)"
fill="#000000" stroke="none">
<path d="M3368 3895 c-237 -45 -499 -204 -800 -486 l-118 -110 -102 95 c-325
302 -611 460 -859 473 -80 5 -108 2 -165 -15 -218 -67 -335 -247 -366 -565
-13 -133 -1 -323 31 -500 16 -90 16 -99 2 -105 -400 -141 -671 -346 -762 -574
-26 -65 -35 -186 -20 -257 56 -264 362 -503 848 -663 l159 -53 -13 -50 c-30
-113 -73 -348 -84 -460 -21 -215 2 -443 60 -577 l20 -48 90 0 91 0 -35 63
c-103 187 -106 514 -9 917 14 58 29 108 32 112 4 3 61 -5 127 -18 66 -13 146
-26 178 -30 l58 -7 51 -76 c132 -196 295 -403 457 -580 l96 -104 -45 -39 c-66
-58 -181 -144 -262 -194 l-72 -44 143 0 143 0 42 32 c22 18 69 56 102 85 l62
53 48 -43 c27 -23 72 -62 100 -85 l52 -42 136 0 137 0 -83 56 c-113 77 -268
204 -268 220 0 4 44 52 98 108 146 152 349 405 466 583 l48 72 71 11 c40 7
123 23 186 36 63 13 116 22 118 20 12 -12 76 -301 94 -424 18 -121 20 -176 16
-307 -6 -170 -19 -241 -63 -327 l-24 -48 89 0 88 0 22 68 c35 114 45 191 45
357 -1 186 -25 365 -79 580 -19 77 -32 142 -28 146 5 4 41 17 81 29 108 31
284 104 392 162 348 185 524 433 481 677 -21 116 -70 201 -175 307 -125 125
-304 237 -501 314 -33 13 -63 26 -67 29 -4 3 4 65 17 137 93 502 18 873 -205
1023 -106 70 -231 92 -372 66z m262 -180 c142 -77 208 -267 197 -570 -5 -125
-33 -343 -53 -406 -4 -15 -13 -15 -92 7 -211 60 -498 111 -754 135 l-127 12
-72 90 c-40 49 -95 114 -123 144 l-49 54 54 56 c76 77 261 236 344 295 217
153 383 220 535 215 72 -3 93 -8 140 -32z m-2013 -26 c92 -28 208 -88 323
-164 97 -65 281 -217 359 -298 l44 -46 -48 -58 c-26 -32 -80 -97 -118 -145
-68 -85 -72 -88 -111 -88 -138 0 -489 -53 -721 -107 -82 -19 -159 -37 -171
-40 -19 -4 -22 3 -39 99 -23 135 -31 405 -15 504 25 158 83 268 170 324 84 54
192 60 327 19z m913 -710 l65 -74 -134 -3 c-74 -1 -136 -1 -138 2 -8 8 121
156 132 153 5 -2 39 -37 75 -78z m145 -235 c40 -5 55 -12 70 -34 11 -15 77
-112 146 -216 153 -228 249 -396 376 -654 l96 -194 -38 -71 c-62 -113 -141
-249 -189 -323 l-44 -69 -103 -12 c-305 -33 -706 -38 -994 -11 -186 18 -164 5
-243 138 -38 64 -97 167 -131 229 l-62 112 51 113 c153 340 518 948 591 985
26 14 378 18 474 7z m-779 -156 c-128 -196 -222 -360 -332 -577 l-93 -185 -39
85 c-75 162 -171 422 -220 597 l-21 73 25 9 c88 34 371 92 583 120 217 29 205
43 97 -122z m1384 91 c142 -24 429 -94 443 -108 11 -11 -51 -214 -119 -390
-60 -154 -147 -351 -155 -351 -4 0 -12 15 -18 32 -35 99 -271 513 -423 740
-43 65 -78 119 -78 121 0 6 213 -21 350 -44z m-2230 -163 c0 -26 101 -328 157
-470 30 -77 84 -202 119 -277 l63 -138 -27 -68 c-16 -37 -43 -111 -62 -163
-18 -52 -37 -99 -41 -104 -10 -12 -217 55 -358 115 -353 152 -544 339 -545
535 0 60 4 81 33 139 74 150 256 287 536 406 97 42 125 47 125 25z m3016 -76
c115 -55 249 -147 323 -222 175 -178 177 -360 3 -540 -84 -87 -194 -161 -353
-237 -139 -66 -367 -147 -378 -134 -4 4 -26 60 -49 124 -23 65 -50 136 -60
160 l-19 43 70 151 c95 206 156 360 223 562 l57 172 50 -20 c28 -11 87 -38
133 -59z m-2477 -1172 c21 -38 28 -58 19 -58 -19 1 -188 37 -192 41 -2 2 12
48 32 102 l35 98 36 -63 c21 -35 52 -89 70 -120z m1890 80 c34 -99 42 -88 -77
-113 -107 -22 -107 -22 -77 28 14 23 44 75 67 115 22 40 44 70 48 65 5 -4 22
-47 39 -95z m-1159 -354 c202 -5 362 -3 474 5 92 7 170 10 173 7 15 -15 -320
-428 -452 -556 l-67 -65 -85 90 c-89 94 -273 320 -359 440 -74 104 -73 98 -28
91 22 -3 176 -9 344 -12z"/>
</g>
</svg>
