<?xml version="1.0" standalone="no"?>
<!DOCTYPE svg PUBLIC "-//W3C//DTD SVG 20010904//EN"
 "http://www.w3.org/TR/2001/REC-SVG-20010904/DTD/svg10.dtd">
<svg version="1.0" xmlns="http://www.w3.org/2000/svg"
 width="48.000000pt" height="48.000000pt" viewBox="0 0 48.000000 48.000000"
 preserveAspectRatio="xMidYMid meet">

<g transform="translate(0.000000,48.000000) scale(0.100000,-0.100000)"
fill="#000000" stroke="none">
<path d="M330 319 c0 -28 -4 -39 -12 -36 -7 2 -25 -2 -40 -10 -39 -19 -39 -67
-1 -87 24 -12 31 -12 55 0 27 14 28 18 28 88 0 56 -4 75 -15 80 -12 4 -15 -3
-15 -35z m0 -89 c0 -10 -6 -20 -12 -23 -21 -7 -38 4 -38 23 0 10 6 20 13 23
20 7 37 -4 37 -23z"/>
<path d="M27 274 c-22 -12 -27 -21 -27 -54 0 -31 3 -38 15 -34 8 4 15 18 15
34 0 28 14 41 38 33 6 -3 12 -17 12 -33 0 -16 7 -30 15 -34 12 -4 15 3 15 34
0 33 -5 42 -28 54 -24 12 -31 12 -55 0z"/>
<path d="M397 274 c-38 -21 -38 -68 1 -88 17 -9 34 -11 42 -6 11 7 8 11 -13
21 -28 13 -37 43 -14 51 18 7 37 -2 37 -18 0 -8 6 -11 15 -8 24 9 18 32 -13
48 -24 12 -31 12 -55 0z"/>
<path d="M190 273 c0 -4 9 -21 20 -38 l20 -30 0 27 c0 17 -8 31 -20 38 -11 6
-20 7 -20 3z"/>
<path d="M120 228 c0 -17 8 -31 20 -38 25 -14 25 -3 0 35 l-20 30 0 -27z"/>
</g>
</svg>
