<?xml version="1.0" standalone="no"?>
<!DOCTYPE svg PUBLIC "-//W3C//DTD SVG 20010904//EN"
 "http://www.w3.org/TR/2001/REC-SVG-20010904/DTD/svg10.dtd">
<svg version="1.0" xmlns="http://www.w3.org/2000/svg"
 width="50.000000pt" height="50.000000pt" viewBox="0 0 50.000000 50.000000"
 preserveAspectRatio="xMidYMid meet">

<g transform="translate(0.000000,50.000000) scale(0.100000,-0.100000)"
fill="#000000" stroke="none">
<path d="M166 464 c-89 -32 -94 -56 -41 -201 3 -9 12 -8 36 4 31 15 99 19 150
8 23 -5 27 -2 32 24 8 40 36 105 42 99 3 -3 -6 -35 -20 -72 -16 -43 -21 -66
-13 -64 15 5 78 96 78 113 0 8 -15 29 -33 48 -51 55 -148 72 -231 41z m41 -86
c-2 -13 -4 -3 -4 22 0 25 2 35 4 23 2 -13 2 -33 0 -45z m126 47 c-3 -9 -8 -14
-10 -11 -3 3 -2 9 2 15 9 16 15 13 8 -4z m-183 -59 c0 -26 -6 -18 -14 19 -5
22 -4 26 4 15 5 -8 10 -24 10 -34z m107 -23 c-2 -16 -4 -5 -4 22 0 28 2 40 4
28 2 -13 2 -35 0 -50z m-80 25 c-3 -7 -5 -2 -5 12 0 14 2 19 5 13 2 -7 2 -19
0 -25z m40 -50 c-3 -7 -5 -2 -5 12 0 14 2 19 5 13 2 -7 2 -19 0 -25z m-30 0
c-3 -8 -6 -5 -6 6 -1 11 2 17 5 13 3 -3 4 -12 1 -19z m-30 -10 c-3 -8 -6 -5
-6 6 -1 11 2 17 5 13 3 -3 4 -12 1 -19z"/>
<path d="M163 248 c-13 -6 -23 -19 -23 -29 0 -16 7 -17 68 -12 51 4 76 2 99
-10 34 -18 43 -14 43 19 0 16 -9 25 -31 33 -40 14 -127 13 -156 -1z"/>
<path d="M98 149 c-10 -5 -18 -14 -18 -18 0 -11 59 -36 66 -28 3 3 -4 8 -15
12 -26 8 -27 21 -3 34 13 8 14 10 2 10 -8 0 -23 -4 -32 -10z"/>
<path d="M366 146 c18 -14 18 -15 2 -21 -10 -4 -18 -11 -18 -17 0 -5 11 -1 24
9 26 19 19 43 -12 43 -13 0 -12 -3 4 -14z"/>
<path d="M192 136 c1 -10 8 -17 13 -17 15 1 12 24 -3 29 -9 3 -13 -2 -10 -12z"/>
<path d="M275 140 c-7 -12 2 -30 16 -30 5 0 9 9 9 20 0 21 -15 27 -25 10z"/>
<path d="M253 71 c-1 -37 48 -56 75 -29 16 16 15 31 0 25 -7 -2 -27 1 -44 8
-27 11 -31 11 -31 -4z"/>
<path d="M200 70 c-8 -5 -23 -7 -33 -4 -16 5 -17 3 -8 -15 7 -12 22 -21 35
-21 26 0 51 24 41 40 -8 12 -16 13 -35 0z"/>
</g>
</svg>
