<?xml version="1.0" standalone="no"?>
<!DOCTYPE svg PUBLIC "-//W3C//DTD SVG 20010904//EN"
 "http://www.w3.org/TR/2001/REC-SVG-20010904/DTD/svg10.dtd">
<svg version="1.0" xmlns="http://www.w3.org/2000/svg"
 width="48.000000pt" height="48.000000pt" viewBox="0 0 48.000000 48.000000"
 preserveAspectRatio="xMidYMid meet">

<g transform="translate(0.000000,48.000000) scale(0.100000,-0.100000)"
fill="#000000" stroke="none">
<path d="M245 364 c-44 -40 -84 -73 -88 -74 -5 0 -24 12 -43 26 -33 26 -35 26
-54 9 -20 -18 -20 -19 12 -52 l32 -33 -33 -34 c-30 -31 -31 -34 -16 -50 21
-21 22 -21 61 9 18 14 36 25 40 25 4 0 42 -32 85 -70 42 -39 82 -70 88 -70 6
0 11 20 11 48 0 48 -1 49 -60 92 -33 24 -60 46 -60 49 0 3 27 26 60 49 59 43
60 44 60 92 0 27 -3 51 -8 54 -4 2 -43 -29 -87 -70z"/>
</g>
</svg>
