<?xml version="1.0" standalone="no"?>
<!DOCTYPE svg PUBLIC "-//W3C//DTD SVG 20010904//EN"
 "http://www.w3.org/TR/2001/REC-SVG-20010904/DTD/svg10.dtd">
<svg version="1.0" xmlns="http://www.w3.org/2000/svg"
 width="48.000000pt" height="48.000000pt" viewBox="0 0 48.000000 48.000000"
 preserveAspectRatio="xMidYMid meet">

<g transform="translate(0.000000,48.000000) scale(0.100000,-0.100000)"
fill="#000000" stroke="none">
<path d="M190 421 c-20 -5 -26 -14 -28 -44 l-3 -37 45 0 c25 0 46 -4 46 -10 0
-6 -33 -10 -80 -10 -68 0 -83 -3 -101 -21 -18 -18 -21 -30 -17 -77 5 -57 23
-82 59 -82 12 0 18 12 22 42 7 53 27 68 90 68 77 0 87 10 87 85 0 55 -3 66
-22 79 -23 17 -55 19 -98 7z m20 -46 c0 -8 -6 -15 -14 -15 -17 0 -28 14 -19
24 12 12 33 6 33 -9z"/>
</g>
</svg>
