<?xml version="1.0" encoding="UTF-8"?>
<svg version="1.1" viewBox="0 0 2048 2048" width="512" height="512" xmlns="http://www.w3.org/2000/svg">
<path transform="translate(1377,484)" d="m0 0h30l24 3 20 5 19 7 21 11 17 12 15 14 10 10 14 19 8 13 9 17 10 25 7 22 6 25 4 24 3 28 1 15v68l-2 28-4 38-4 28-7 41-9 42 10 3 39 16 35 16 24 12 23 13 23 14 12 8 17 12 13 10 11 9 11 10 8 7 14 14 9 11 8 9 13 19 9 15 8 16 6 15 6 20 3 16 1 9v33l-3 20-6 23-10 24-11 20-8 12-9 12-11 13-7 8-21 21-11 9-13 11-18 13-24 16-15 9-23 13-29 15-30 14-36 15-35 13-43 14-23 7h-2l8 28 10 38 10 45 8 43 6 42 4 38 2 37v47l-2 32-4 31-6 29-7 24-7 20-3 6h-446l-12-10-10-8-17-14-15-13-10-9-8-7-3-3-5 1-11 9-10 9-11 9-16 13-16 12-13 10-1 1h-421l-11-25-9-27-6-24-5-30-3-26-1-14-1-41 2-46 4-41 6-41 6-34 8-38 10-42 7-26-11-2-55-17-37-13-33-13-28-12-34-16-23-12-24-14-19-12-23-16-14-11-13-11-8-7-15-14-7-8-7-7-11-14-13-18-10-18-9-19-7-21-5-24-1-8v-31l3-21 5-19 7-19 9-19 11-18 14-19 9-10 7-8 7-7 6-7 8-7 11-10 26-20 22-15 19-12 21-12 32-17 28-13 31-13 28-11 17-6h2l-9-47-7-49-4-41-2-37v-35l2-34 4-32 5-26 7-26 7-20 8-18 10-19 8-12 9-12 9-10 14-14 13-10 18-11 19-9 19-6 20-4 19-2h26l27 3 25 5 24 7 20 7 26 11 29 14 23 13 26 16 24 16 19 14 12 9 13 10 16 13 11 9 28 24 16 15 12 11 10 10 8 7 15 15 3-1 7-8 34-34 8-7 7-7 8-7 13-12 11-9 11-10 11-9 16-13 13-10 16-12 17-12 27-18 28-17 26-14 27-13 28-11 28-9 27-6 19-3z" fill="#586598"/>
<path transform="translate(929,949)" d="m0 0h94l54 2 10 1 5 5 14 19 24 34 14 20 27 41 16 25 16 26 27 45 14 25 13 23 15 28 10 19 12 23 17 34 26 56 6 13-1 6-13 25-13 23-13 24-10 17-17 29-8 13-13 21-12 19-6 8-6 2-54 6-58 5-52 3-26 1-45 1h-35l-50-1-45-2-48-3-53-5-33-4-5-5-12-19-17-28-13-22-11-19-16-28-17-32-14-26-2-7 8-17 9-21 16-34 11-23 8-17 10-19 17-33 10-18 11-20 10-17 6-11 15-26 9-15 11-18 8-13 14-22 13-20 10-15 21-31 10-14 12-17 9-12 4-5 2-1z" fill="#D2EDF6"/>
<path transform="translate(1375,548)" d="m0 0h31l19 3 18 6 15 8 12 9 12 11 11 14 9 15 9 19 9 27 5 22 4 26 2 19 1 21v37l-2 36-4 39-7 45-7 36-4 17-2 1-21-7-44-12-51-12-50-10-46-8-57-8-44-5-54-5-14-1-6-3-10-12-11-14-18-22-11-13-9-11-10-11-9-11-13-14-3-6 22-22 6-7 8-7 21-21 8-7 11-10 8-7 14-12 13-11 28-22 18-13 10-7 24-16 28-17 29-15 24-11 27-10 27-7z" fill="#D2EDF6"/>
<path transform="translate(1418,1605)" d="m0 0h4l5 16 8 29 8 32 9 41 8 47 4 30 3 32 1 18v64l-3 32-5 29-6 22-7 20-13 28-2 3h-263l-10-7-33-22-17-12-13-10-14-11-16-13-14-12-15-13-10-9 1-4 8-7 15-15 7-8 9-9 2-3h2l2-4 10-10 7-8 10-11 9-11 13-14 11-14 10-11 11-14 6-7 10-13 9-11 13-17 24-32 13-18 12-17 16-23 12-18 6-7 7-2 47-8 52-10z" fill="#D2EDF6"/>
<path transform="translate(570,562)" d="m0 0h25l23 3 25 6 24 8 26 11 32 16 22 13 19 12 22 15 19 14 26 20 13 11 11 9 15 13 13 12 12 11 8 7 32 32-3 5-9 10-11 13-9 11-12 14-8 10-11 14-13 16-13 17-4 4-17 2-38 3-41 4-64 8-56 9-38 7-55 12-48 12-21 6-4-2-7-37-6-40-4-38-2-36v-37l2-32 4-29 7-31 9-26 8-17 9-14 11-14 11-11 13-9 15-8 18-6z" fill="#D2EDF6"/>
<path transform="translate(548,1609)" d="m0 0 12 2 50 10 53 9 29 5 6 7 12 18 17 25 24 34 12 16 10 14 10 13 13 17 20 25 13 16 9 11 12 14 9 11 12 13 9 11 8 8 7 8 16 17 9 9v2l4 2 7 8 2 2v3l-11 9-14 12-16 13-17 13-19 14-22 15-19 12-35 21h-226l-12-17-9-16-8-19-7-23-6-28-4-32-2-32v-24l2-42 5-45 7-45 8-40 9-39 9-32z" fill="#D2EDF6"/>
<path transform="translate(414,1035)" d="m0 0 3 1 7 24 13 43 16 49 18 50 15 38 18 44 6 13 13 29 16 35 14 28 2 6-11 28-10 26-17 47-12 35-5 1-43-13-36-12-30-11-32-13-35-16-26-13-24-14-18-11-20-14-16-13-11-9-28-28-13-17-8-13-8-16-4-10-4-14-3-21v-10l3-19 5-18 8-18 8-13 8-11 13-16 26-26 14-11 12-9 20-14 15-9 17-10 27-14 16-8 24-11 27-11 27-10z" fill="#D2EDF6"/>
<path transform="translate(1553,1041)" d="m0 0 26 10 23 10 28 13 23 12 18 10 13 8 15 10 17 12 10 8 16 13 8 8 8 7 11 12 10 13 10 15 10 19 7 21 2 10 1 10v15l-3 19-5 17-11 23-10 15-10 13-9 10-19 19-11 9-15 12-24 16-19 12-25 14-32 16-24 11-32 13-30 11-49 16-13 4-4-1-11-30-12-33-14-36-11-27-2-8 19-39 9-19 11-24 15-34 18-43 15-38 14-38 17-50 9-28 9-30z" fill="#D2EDF6"/>
<path transform="translate(967,1109)" d="m0 0h16l22 3 22 6 19 8 16 9 15 11 13 12 7 7 10 13 8 13 8 16 6 17 5 21 2 17v18l-4 24-6 20-5 12-8 16-12 17-9 10-13 13-15 11-17 10-16 7-20 6-20 4-20 1-22-3-24-6-19-8-13-7-12-8-13-11-14-14-10-13-11-18-8-18-6-19-3-16-1-11v-13l2-21 5-23 8-21 10-18 13-17 12-13 14-12 19-12 19-9 23-7 16-3z" fill="#69BEE4"/>
<path transform="translate(1177,1644)" d="m0 0h12l-2 5-12 16-10 14-14 19-30 39-9 11-10 13-8 9-11 14-10 11-9 11-12 13-11 12-7 8-9 10-7 7-7 8-29 29-4-1-16-17-12-12-7-8-16-17-9-10-9-11-10-11-9-11-12-14-11-14-14-17-10-13-13-17-15-20-26-36-10-14-2-5 14 1 77 5 49 2h105l57-2 65-4z" fill="#D2EDF6"/>
<path transform="translate(788,957)" d="m0 0h6l-2 5-11 16-28 42-28 44-24 40-13 22-28 50-14 26-19 37-9 17-11 23-13 27-4 9-3-1-14-29-15-35-15-36-15-39-16-44-14-43-9-29-11-40 1-5 23-7 42-11 50-11 47-9 51-8 48-6z" fill="#D2EDF6"/>
<path transform="translate(1172,959)" d="m0 0h9l53 6 51 7 51 9 35 7 43 10 35 9 41 12 2 1-1 7-10 34-9 29-14 41-14 38-20 50-18 42-9 20-15 33h-4l-11-23-30-60-12-22-12-23-13-23-16-28-10-17-13-22-13-21-12-19-16-25-22-33-15-22-11-16z" fill="#D2EDF6"/>
<path transform="translate(980,823)" d="m0 0 4 1 9 11 13 15 10 11 8 10 9 10 3 5-3 1-104-1 1-4 9-10 11-14 12-14 13-15z" fill="#D2EDF6"/>
<path transform="translate(593,1470)" d="m0 0h2l6 11 10 19 14 24 17 29 5 8v3l-27-5-50-10-3-1 1-8 15-43 8-22z" fill="#D2EDF6"/>
<path transform="translate(1373,1468)" d="m0 0 3 1 11 29 15 41v5l-40 9-36 7h-5l2-5 8-13 9-15 15-26 13-23 3-5z" fill="#D2EDF6"/>
<path transform="translate(1088,1153)" d="m0 0 7 6 5 4 3 1 4 6-2 4-11-13-6-6z" fill="#FEFEFE"/>
</svg>
